<svg width="15" height="16" viewBox="0 0 15 16" fill="none" xmlns="http://www.w3.org/2000/svg">
<path d="M6.47757 2.47492C5.86869 2.46783 5.26446 2.58162 4.69987 2.80972C4.13529 3.03782 3.62157 3.37569 3.1885 3.80374C2.75543 4.2318 2.4116 4.74154 2.17694 5.30343C1.94227 5.86532 1.82144 6.46819 1.82144 7.07711C1.82144 7.68603 1.94227 8.2889 2.17694 8.85079C2.4116 9.41268 2.75543 9.92242 3.1885 10.3505C3.62157 10.7785 4.13529 11.1164 4.69987 11.3445C5.26446 11.5726 5.86869 11.6864 6.47757 11.6793C7.68886 11.6652 8.84575 11.1741 9.69731 10.3126C10.5489 9.45101 11.0264 8.28848 11.0264 7.07711C11.0264 5.86574 10.5489 4.70321 9.69731 3.84167C8.84575 2.98012 7.68886 2.48904 6.47757 2.47492Z" stroke="white" stroke-width="0.8" stroke-miterlimit="10"/>
<path d="M9.91058 10.5112L13.125 13.7256" stroke="white" stroke-width="0.8" stroke-miterlimit="10" stroke-linecap="round"/>
</svg>
