<svg width="17" height="11" viewBox="0 0 17 11" fill="none" xmlns="http://www.w3.org/2000/svg">
<path d="M15.8387 1.70962C15.6452 1.0322 15.1613 0.548324 14.4839 0.354776C13.3226 0.0644533 8.3871 0.0644531 8.3871 0.0644531C8.3871 0.0644531 3.5484 0.0644533 2.29034 0.354776C1.61292 0.548324 1.12904 1.0322 0.935489 1.70962C0.74194 2.96768 0.741943 5.48381 0.741943 5.48381C0.741943 5.48381 0.741946 7.99994 1.03227 9.258C1.22582 9.93542 1.70968 10.4193 2.3871 10.6128C3.54839 10.9032 8.48388 10.9032 8.48388 10.9032C8.48388 10.9032 13.3226 10.9032 14.5806 10.6128C15.2581 10.4193 15.742 9.93542 15.9355 9.258C16.2258 7.99994 16.2258 5.48381 16.2258 5.48381C16.2258 5.48381 16.2258 2.96768 15.8387 1.70962ZM6.93549 7.80639V3.16123L11 5.48381L6.93549 7.80639Z" fill="#2C2A29"/>
</svg>
