<svg width="17" height="17" viewBox="0 0 17 17" fill="none" xmlns="http://www.w3.org/2000/svg">
<path d="M8.7424 1.90303C10.8714 1.90303 11.1618 1.90303 12.0327 1.90303C12.8069 1.90303 13.194 2.09658 13.4843 2.19335C13.8714 2.3869 14.1618 2.48367 14.4521 2.774C14.7424 3.06432 14.936 3.35464 15.0327 3.74174C15.1295 4.03206 15.2263 4.41916 15.323 5.19335C15.323 6.06432 15.323 6.25787 15.323 8.48367C15.323 10.7095 15.323 10.903 15.323 11.774C15.323 12.5482 15.1295 12.9353 15.0327 13.2256C14.8392 13.6127 14.7424 13.903 14.4521 14.1933C14.1618 14.4837 13.8714 14.6772 13.4843 14.774C13.194 14.8708 12.8069 14.9675 12.0327 15.0643C11.1618 15.0643 10.9682 15.0643 8.7424 15.0643C6.5166 15.0643 6.32305 15.0643 5.45208 15.0643C4.67789 15.0643 4.29079 14.8708 4.00047 14.774C3.61337 14.5804 3.32305 14.4837 3.03273 14.1933C2.7424 13.903 2.54885 13.6127 2.45208 13.2256C2.35531 12.9353 2.25853 12.5482 2.16176 11.774C2.16176 10.903 2.16176 10.7095 2.16176 8.48367C2.16176 6.25787 2.16176 6.06432 2.16176 5.19335C2.16176 4.41916 2.35531 4.03206 2.45208 3.74174C2.64563 3.35464 2.7424 3.06432 3.03273 2.774C3.32305 2.48367 3.61337 2.29013 4.00047 2.19335C4.29079 2.09658 4.67789 1.9998 5.45208 1.90303C6.32305 1.90303 6.61337 1.90303 8.7424 1.90303ZM8.7424 0.451416C6.5166 0.451416 6.32305 0.451416 5.45208 0.451416C4.58111 0.451416 4.00047 0.644965 3.5166 0.838513C3.03273 1.03206 2.54885 1.32238 2.06498 1.80626C1.58111 2.29013 1.38756 2.67722 1.09724 3.25787C0.903693 3.74174 0.806918 4.32238 0.710144 5.19335C0.710144 6.06432 0.710144 6.35464 0.710144 8.48367C0.710144 10.7095 0.710144 10.903 0.710144 11.774C0.710144 12.645 0.903693 13.2256 1.09724 13.7095C1.29079 14.1933 1.58111 14.6772 2.06498 15.1611C2.54885 15.645 2.93595 15.8385 3.5166 16.1288C4.00047 16.3224 4.58111 16.4192 5.45208 16.5159C6.32305 16.5159 6.61337 16.5159 8.7424 16.5159C10.8714 16.5159 11.1618 16.5159 12.0327 16.5159C12.9037 16.5159 13.4843 16.3224 13.9682 16.1288C14.4521 15.9353 14.936 15.645 15.4198 15.1611C15.9037 14.6772 16.0972 14.2901 16.3876 13.7095C16.5811 13.2256 16.6779 12.645 16.7747 11.774C16.7747 10.903 16.7747 10.6127 16.7747 8.48367C16.7747 6.35464 16.7747 6.06432 16.7747 5.19335C16.7747 4.32238 16.5811 3.74174 16.3876 3.25787C16.194 2.774 15.9037 2.29013 15.4198 1.80626C14.936 1.32238 14.5489 1.12884 13.9682 0.838513C13.4843 0.644965 12.9037 0.54819 12.0327 0.451416C11.1618 0.451416 10.9682 0.451416 8.7424 0.451416Z" fill="#2C2A29"/>
<path d="M8.7424 4.32238C6.41982 4.32238 4.58111 6.16109 4.58111 8.48367C4.58111 10.8063 6.41982 12.645 8.7424 12.645C11.065 12.645 12.9037 10.8063 12.9037 8.48367C12.9037 6.16109 11.065 4.32238 8.7424 4.32238ZM8.7424 11.1933C7.29079 11.1933 6.03272 10.0321 6.03272 8.48367C6.03272 7.03206 7.19402 5.774 8.7424 5.774C10.194 5.774 11.4521 6.93529 11.4521 8.48367C11.4521 9.93529 10.194 11.1933 8.7424 11.1933Z" fill="#2C2A29"/>
<path d="M13.0005 5.19335C13.5349 5.19335 13.9682 4.76008 13.9682 4.22561C13.9682 3.69114 13.5349 3.25787 13.0005 3.25787C12.466 3.25787 12.0327 3.69114 12.0327 4.22561C12.0327 4.76008 12.466 5.19335 13.0005 5.19335Z" fill="#2C2A29"/>
</svg>
