<svg width="15" height="15" viewBox="0 0 15 15" fill="none" xmlns="http://www.w3.org/2000/svg">
<path d="M3.74189 14.9355H0.725756V5.44356H3.74189V14.9355ZM2.23383 4.11291C1.25802 4.11291 0.54834 3.40323 0.54834 2.42743C0.54834 1.45162 1.34673 0.741943 2.23383 0.741943C3.20963 0.741943 3.91931 1.45162 3.91931 2.42743C3.91931 3.40323 3.20963 4.11291 2.23383 4.11291ZM14.7419 14.9355H11.7258V9.79033C11.7258 8.28227 11.1048 7.83872 10.2177 7.83872C9.33059 7.83872 8.4435 8.54839 8.4435 9.87904V14.9355H5.42737V5.44356H8.26608V6.7742C8.53221 6.15323 9.59672 5.17743 11.1048 5.17743C12.7903 5.17743 14.5645 6.15323 14.5645 9.08065V14.9355H14.7419Z" fill="#2C2A29"/>
</svg>
