<svg width="16" height="13" viewBox="0 0 16 13" fill="none" xmlns="http://www.w3.org/2000/svg">
<path d="M16 1.64522C15.4193 1.93554 14.8387 2.03231 14.1613 2.12909C14.8387 1.74199 15.3226 1.16135 15.5161 0.387152C14.9355 0.774248 14.258 0.967797 13.4839 1.16135C12.9032 0.5807 12.0322 0.193604 11.1613 0.193604C9.12902 0.193604 7.58063 2.12909 8.0645 4.06457C5.4516 3.9678 3.12902 2.70973 1.48386 0.774249C0.612887 2.22586 1.09676 4.06457 2.4516 5.03231C1.96773 5.03231 1.48386 4.83877 0.999984 4.64522C0.999984 6.09683 2.0645 7.45167 3.51611 7.83876C3.03224 7.93554 2.54837 8.03231 2.0645 7.93554C2.4516 9.1936 3.61289 10.1613 5.0645 10.1613C3.90321 11.0323 2.16127 11.5162 0.516113 11.3226C1.96773 12.1936 3.61289 12.7742 5.35482 12.7742C11.258 12.7742 14.5484 7.83876 14.3548 3.29038C15.0322 2.90328 15.6129 2.32264 16 1.64522Z" fill="#2C2A29"/>
</svg>
