<svg width="17" height="14" viewBox="0 0 17 14" fill="none" xmlns="http://www.w3.org/2000/svg">
<path d="M8.99699 13.803L15.241 7.49903C16.0511 6.67212 16.5035 5.55969 16.5003 4.40205C16.4971 3.2444 16.0387 2.13448 15.224 1.31203C14.8243 0.904356 14.3476 0.580225 13.8215 0.358492C13.2954 0.13676 12.7305 0.0218535 12.1596 0.0204576C11.5887 0.0190618 11.0233 0.131204 10.4961 0.350361C9.96894 0.569519 9.49063 0.891315 9.08899 1.29703L8.49299 1.90003L7.88799 1.29003C7.48888 0.882895 7.0128 0.559174 6.48745 0.33769C5.9621 0.116206 5.39796 0.00138142 4.82783 -0.000107404C4.25771 -0.00159623 3.69297 0.110281 3.16647 0.329018C2.63997 0.547754 2.16222 0.868986 1.76099 1.27403C0.0729854 2.97903 0.0809854 5.75003 1.77699 7.46303L8.05399 13.803C8.31399 14.066 8.73699 14.066 8.99699 13.803ZM9.79999 2.00003C10.1087 1.68841 10.4763 1.44134 10.8815 1.27321C11.2866 1.10509 11.7212 1.01927 12.1598 1.02076C12.5985 1.02225 13.0324 1.11101 13.4364 1.28189C13.8404 1.45276 14.2064 1.70232 14.513 2.01603C15.1422 2.65137 15.4965 3.50856 15.4995 4.40275C15.5025 5.29694 15.1539 6.15649 14.529 6.79603V6.79803L8.52499 12.858L2.48699 6.75903C1.17399 5.43303 1.17299 3.28903 2.47199 1.97703C2.7803 1.66598 3.14742 1.41938 3.55196 1.25158C3.9565 1.08377 4.39038 0.998124 4.82834 0.999613C5.26629 1.0011 5.69958 1.0897 6.10297 1.26025C6.50636 1.4308 6.87179 1.67989 7.17799 1.99303L8.13799 2.96303C8.18448 3.01005 8.23985 3.04737 8.30087 3.07284C8.36189 3.09832 8.42736 3.11143 8.49349 3.11143C8.55961 3.11143 8.62508 3.09832 8.6861 3.07284C8.74712 3.04737 8.80249 3.01005 8.84899 2.96303L9.79999 2.00003Z" fill="#1F1F1F"/>
</svg>
